<svg width="1030" height="206" viewBox="0 0 1030 206" fill="none" xmlns="http://www.w3.org/2000/svg">
<path d="M419.975 149.412C427.855 143.633 429.331 140.641 427.459 135.717C421.467 138.142 415.678 141.573 409.452 142.813C384.467 147.791 364.123 130.605 362.406 103.7C361.015 81.9077 373.058 64.0814 393.443 58.9105C401.796 56.7918 410.413 56.8747 418.347 61.5295C421.062 63.1222 424.007 64.3225 427.102 65.8258C427.738 63.7923 428.202 62.311 428.754 60.547C436.608 60.547 444.418 60.547 452.609 60.547C452.76 61.6122 453.07 62.7792 453.071 63.9466C453.095 86.0941 453.248 108.243 453.016 130.388C452.879 143.489 449.856 155.622 438.372 163.845C429.451 170.233 419.261 172.24 408.499 172.223C394.553 172.202 380.878 171.173 370.237 160.592C367.346 157.718 365.173 154.122 363.146 150.161C375.863 148.925 388.067 147.762 400.076 151.204C406.867 153.151 413.395 153.617 419.975 149.412ZM400.566 81.8555C390.687 87.9938 386.584 96.8966 388.977 106.997C391.607 118.095 402.817 125.088 413.332 122.189C425.233 118.909 430.72 106.492 426.726 93.3361C424.217 85.0731 410.81 75.9598 400.566 81.8555Z" fill="#2E3037"/>
<path d="M767.592 59.7035C773.418 59.7026 778.746 59.7026 784.386 59.7026C784.386 88.6805 784.386 117.101 784.386 145.806C776.165 145.806 768.2 145.806 759.917 145.806C759.557 143.915 759.181 141.937 758.651 139.152C747.068 147.203 734.972 150.828 721.596 146.263C712.593 143.19 705.19 137.778 699.907 129.792C687.631 111.235 688.97 87.2604 703.315 71.3128C710.454 63.3757 719.377 58.4382 730.13 57.2081C740.864 55.9801 750.04 59.7548 758.596 67.073C759.111 64.4058 759.462 62.5898 759.924 60.198C762.211 60.0405 764.652 59.8724 767.592 59.7035ZM718.133 95.5456C717.922 96.2261 717.672 96.8971 717.508 97.5885C715.378 106.533 719.391 116.259 727.239 121.203C735.009 126.097 745.024 125.604 752.278 119.969C759.794 114.13 762.666 105.073 759.823 96.1689C757.067 87.5369 749.767 81.3579 741.245 80.7555C730.366 79.9865 722.864 84.9644 718.133 95.5456Z" fill="#2E3037"/>
<path d="M990.201 59.0785C994.817 61.4639 999.018 63.7466 1003.78 66.3313C1003.92 64.5642 1004.07 62.7419 1004.25 60.53C1012.7 60.53 1021.19 60.53 1030 60.53C1030 88.809 1030 117.107 1030 145.692C1021.63 145.692 1013.5 145.692 1005.22 145.692C1004.83 143.85 1004.44 142.007 1004.07 140.292C998.326 142.643 993.016 145.681 987.309 146.996C965.798 151.955 942.9 135.74 939.871 113.843C938.436 103.473 938.638 93.2116 942.227 83.2161C948.419 65.9717 966.442 55.1894 984.588 57.9138C986.334 58.1761 988.054 58.6176 990.201 59.0785ZM983.512 79.7358C978.883 82.123 973.541 83.7098 969.777 87.0663C962.291 93.7405 961.389 106.118 966.706 114.625C971.854 122.863 982.384 127.265 990.654 124.636C1001.45 121.206 1007.5 111.068 1005.99 98.974C1004.66 88.3006 995.508 80.1422 983.512 79.7358Z" fill="#2E3037"/>
<path d="M316.993 59.4666C321.609 61.8521 325.81 64.1348 330.567 66.7195C330.711 64.9524 330.86 63.1301 331.041 60.9182C339.497 60.9182 347.982 60.9182 356.792 60.9182C356.792 89.1972 356.792 117.496 356.792 146.081C348.419 146.081 340.289 146.081 332.015 146.081C331.622 144.238 331.23 142.395 330.864 140.68C325.118 143.031 319.808 146.069 314.101 147.384C292.589 152.343 269.692 136.128 266.663 114.231C265.228 103.861 265.43 93.5998 269.019 83.6043C275.211 66.3599 293.234 55.5775 311.38 58.302C313.126 58.5643 314.846 59.0057 316.993 59.4666ZM310.304 80.124C305.675 82.5111 300.333 84.098 296.568 87.4545C289.083 94.1287 288.181 106.506 293.498 115.013C298.646 123.252 309.176 127.653 317.446 125.024C328.238 121.594 334.297 111.457 332.783 99.3622C331.448 88.6887 322.3 80.5303 310.304 80.124Z" fill="#2E3037"/>
<path d="M880.489 124.416C887.807 128.125 894.878 127.123 901.606 124.4C911.023 120.589 920.54 122.93 930.037 122.459C929.956 135.654 907.083 148.907 886.603 148.175C861.651 147.285 842.896 126.103 844.771 100.931C846.781 73.9455 868.969 54.3377 894.263 57.3663C922.148 60.7051 936.981 84.2215 934.257 111.547C913.025 111.547 891.731 111.547 870.437 111.547C870.081 112.063 869.724 112.579 869.368 113.095C872.951 116.809 876.534 120.524 880.489 124.416ZM884.602 78.9462C877.577 81.8731 872.509 86.5618 870.448 94.0679C883.673 94.0679 896.541 94.0679 909.569 94.0679C904.578 81.8492 898.881 78.3021 884.602 78.9462Z" fill="#2E3037"/>
<path d="M464.97 80.5177C472.976 65.7374 485.184 58.449 501.505 58.02C519.259 57.5533 533.36 64.7045 541.877 80.2013C545.678 87.1165 547.171 95.5465 548.506 103.492C549.539 109.636 547.939 110.766 541.804 110.836C524.682 111.03 507.557 111.074 490.433 111.174C488.545 111.186 486.656 111.176 484.54 111.176C489.156 123.8 500.827 130.225 511.37 125.107C518.407 121.691 525.277 121.556 532.529 121.661C536.438 121.718 540.347 121.671 544.927 121.671C542.495 128.551 537.826 133.031 532.968 137.283C512.328 155.349 478.706 150.01 465.526 126.136C457.42 111.454 457.695 96.087 464.97 80.5177ZM512.651 81.4993C499.671 76.0422 487.55 81.9303 484.977 94.8193C497.606 94.8193 510.256 94.8193 522.906 94.8193C523.237 94.3412 523.568 93.8631 523.9 93.385C520.369 89.5865 516.837 85.788 512.651 81.4993Z" fill="#2E3037"/>
<path d="M636.187 100.072C636.21 115.55 636.21 130.51 636.21 145.725C627.476 145.725 619.323 145.725 610.757 145.725C610.757 139.222 610.874 132.673 610.73 126.129C610.508 115.965 610.433 105.781 609.681 95.6503C609.074 87.4621 604.33 82.3259 598.058 81.6952C590.96 80.9815 584.708 85.5295 582.455 93.56C581.457 97.1194 580.875 100.907 580.824 104.601C580.635 118.157 580.749 131.717 580.749 145.68C572.155 145.68 563.703 145.68 554.873 145.68C554.873 117.42 554.873 89.2555 554.873 60.6974C563.11 60.6974 571.386 60.6974 580.04 60.6974C580.273 62.4271 580.524 64.3001 580.628 65.0768C587.404 62.8558 594.194 59.1683 601.234 58.6019C620.874 57.022 633.293 68.7892 635.347 89.4086C635.683 92.7842 635.894 96.1722 636.187 100.072Z" fill="#2E3037"/>
<path d="M650.611 133.133C650.611 115.167 650.611 97.7318 650.611 79.9044C647.38 79.9044 644.585 79.9044 641.383 79.9044C641.383 73.7715 641.383 68.0164 641.383 61.8594C644.135 61.8594 646.92 61.8594 650.309 61.8594C650.309 54.6755 650.309 47.8517 650.309 40.7314C659.21 40.7314 667.514 40.7314 676.26 40.7314C676.26 47.5185 676.26 54.1984 676.26 61.2736C679.944 61.4638 683.22 61.6329 686.727 61.8139C686.727 67.7647 686.727 73.3953 686.727 79.6592C683.411 79.6592 680.141 79.6592 676.519 79.6592C676.519 101.965 676.519 123.648 676.519 145.702C667.877 145.702 659.602 145.702 650.611 145.702C650.611 141.719 650.611 137.692 650.611 133.133Z" fill="#2E3037"/>
<path d="M820.448 128.862C820.448 134.73 820.448 140.062 820.448 145.921C812.648 145.921 805.405 145.919 798.162 145.922C794.464 145.924 795.077 143.119 795.066 140.942C795.004 128.978 795.037 117.013 795.037 105.048C795.038 90.2408 795.037 75.4339 795.037 60.275C803.301 60.275 811.247 60.275 819.842 60.275C819.842 63.5927 819.842 67.0019 819.842 71.7953C825.693 64.7958 831.869 60.9896 839.478 59.6149C842.485 59.0716 844.428 59.5293 844.409 63.1129C844.375 69.6859 844.399 76.2593 844.399 83.13C842.653 83.3598 841.293 83.6236 839.922 83.7057C828.639 84.382 822.015 90.2824 821.097 101.613C820.378 110.477 820.628 119.42 820.448 128.862Z" fill="#2E3037"/>
<path d="M0 24.9456C0 11.1685 11.1685 0 24.9456 0H180.856C194.633 0 205.801 11.1685 205.801 24.9456V180.856C205.801 194.633 194.633 205.801 180.856 205.801H24.9456C11.1685 205.801 0 194.633 0 180.856V24.9456Z" fill="#2E3037"/>
<path fill-rule="evenodd" clip-rule="evenodd" d="M36.3596 63.8713C36.3581 63.8707 36.377 63.8586 36.4207 63.837C36.3829 63.8611 36.3611 63.8719 36.3596 63.8713ZM37.9786 63.3582C38.7344 63.1941 39.721 63.0421 40.9644 62.9327C45.1451 62.5648 50.6743 62.798 56.4619 63.3574C62.1677 63.9089 67.7767 64.7411 71.9852 65.442C73.4956 65.6936 74.8169 65.9267 75.887 66.1217C76.1504 66.4814 76.4378 66.8709 76.7465 67.2858C78.4086 69.5195 80.7232 72.5299 83.2952 75.5761C85.8339 78.5828 88.7817 81.8142 91.7057 84.3798C93.1648 85.6601 94.7862 86.9246 96.4878 87.9212C98.0709 88.8485 100.401 89.9517 103.14 90.0707C106.097 90.1992 108.615 89.1185 110.282 88.1986C112.064 87.215 113.73 85.9319 115.197 84.6469C118.139 82.0698 121.074 78.777 123.578 75.7228C126.12 72.6221 128.401 69.5401 130.036 67.2513C130.283 66.9049 130.517 66.5756 130.735 66.2659C131.734 66.1263 132.928 65.9643 134.273 65.7909C138.44 65.2538 144.003 64.6145 149.664 64.1903C155.39 63.7613 160.936 63.575 165.173 63.8653C166.017 63.9231 166.756 63.9968 167.395 64.0803C167.234 64.6159 167.034 65.2195 166.789 65.8923C165.438 69.6088 163.179 74.2343 160.63 78.9243C158.112 83.5573 155.446 88.0095 153.396 91.3203C152.977 91.9982 152.584 92.6262 152.226 93.196L118.446 93.196C114.14 93.196 110.65 96.6862 110.65 100.991C110.65 105.297 114.14 108.787 118.446 108.787H152.353C152.808 109.474 153.317 110.251 153.867 111.105C156.116 114.595 159.012 119.294 161.671 124.221C164.37 129.222 166.641 134.126 167.833 138.094C168.366 139.868 168.595 141.174 168.646 142.048C168.619 142.058 168.592 142.068 168.563 142.078C167.644 142.404 166.24 142.703 164.299 142.881C160.413 143.236 155.494 143.012 150.418 142.469C145.411 141.933 140.572 141.124 136.961 140.441C135.862 140.233 134.884 140.038 134.056 139.869C133.65 139.278 133.183 138.604 132.665 137.865C130.731 135.104 128.063 131.391 125.155 127.635C122.277 123.918 119.033 119.986 115.957 116.878C114.429 115.333 112.778 113.823 111.104 112.622C109.665 111.59 107.199 110.029 104.184 109.755C100.66 109.435 97.738 111.033 96.1953 112.007C94.3659 113.161 92.5955 114.677 90.999 116.208C87.7767 119.297 84.3788 123.31 81.3789 127.109C78.3424 130.956 75.5481 134.797 73.5228 137.66C72.953 138.465 72.4418 139.197 72.0006 139.833C71.1656 139.997 70.1784 140.185 69.0701 140.386C65.4246 141.047 60.5382 141.83 55.4811 142.349C50.3575 142.874 45.3756 143.093 41.4305 142.747C39.5539 142.582 38.1608 142.309 37.2105 142.004C37.3298 141.186 37.6052 140.037 38.1259 138.53C39.4964 134.565 42.0249 129.638 45.0016 124.604C47.9334 119.646 51.1048 114.908 53.5622 111.387C54.2401 110.416 54.8604 109.542 55.4023 108.787L88.5109 108.787C92.8162 108.787 96.3064 105.297 96.3064 100.992C96.3064 96.6862 92.8163 93.196 88.5109 93.196L55.3275 93.196C54.879 92.5908 54.3771 91.9071 53.8339 91.1571C51.5697 88.0312 48.6255 83.8071 45.8432 79.3424C43.0245 74.8192 40.5411 70.3164 39.0497 66.5843C38.5274 65.2772 38.1836 64.2032 37.9786 63.3582ZM41.761 101.064C41.5813 100.818 41.3966 100.564 41.2073 100.303C38.8149 97.0001 35.6479 92.4611 32.6112 87.5882C29.611 82.7738 26.5678 77.3644 24.5719 72.3698C23.5771 69.8805 22.7251 67.2083 22.3516 64.5855C21.9957 62.0856 21.9386 58.7057 23.5646 55.5099C25.4328 51.8383 28.7937 50.0278 31.2737 49.1024C33.8847 48.1281 36.8129 47.6468 39.5977 47.4017C45.21 46.9078 51.8613 47.2491 57.9618 47.8387C64.1442 48.4363 70.1311 49.3275 74.5465 50.0629C74.6173 50.0746 74.6878 50.0864 74.7578 50.0981C75.9127 46.1775 77.5777 41.0003 79.677 35.763C81.8148 30.4296 84.5596 24.6327 87.9007 20.0153C90.9325 15.8255 96.0213 10.4236 103.297 10.2543C110.796 10.0798 116.002 15.5873 119.013 19.7607C122.345 24.3786 125.054 30.2244 127.15 35.5955C129.259 40.9996 130.912 46.3584 132.039 50.359C132.119 50.3486 132.199 50.3382 132.28 50.3278C136.61 49.7698 142.467 49.0948 148.499 48.6429C154.467 48.1958 160.886 47.944 166.239 48.3108C168.888 48.4923 171.62 48.8457 174.03 49.551C176.07 50.1481 179.675 51.4895 181.814 54.9237C183.828 58.1579 183.654 61.7503 183.376 63.873C183.058 66.2976 182.308 68.8378 181.442 71.2201C179.694 76.0257 177.003 81.4488 174.329 86.3692C171.624 91.3466 168.794 96.0668 166.653 99.5257C166.36 99.9997 166.079 100.451 165.812 100.877C166.175 101.429 166.563 102.025 166.972 102.659C169.351 106.35 172.477 111.415 175.392 116.817C178.267 122.145 181.121 128.136 182.765 133.61C183.584 136.338 184.214 139.293 184.247 142.174C184.279 145.003 183.739 148.604 181.305 151.673C179.169 154.366 176.292 155.88 173.773 156.773C171.205 157.683 168.411 158.161 165.719 158.407C160.338 158.899 154.246 158.558 148.759 157.971C143.275 157.384 138.064 156.514 134.215 155.789C132.71 159.412 130.564 164.255 127.992 169.135C125.426 174.002 122.254 179.257 118.668 183.383C115.455 187.08 110.182 191.901 103.283 191.729C96.6513 191.563 91.4736 186.876 88.1943 183.179C84.5497 179.071 81.2676 173.88 78.5822 169.059C75.8609 164.173 73.5748 159.341 71.9775 155.757C71.9703 155.74 71.9631 155.724 71.9559 155.708C71.9203 155.715 71.8846 155.721 71.8488 155.728C67.9619 156.432 62.6558 157.285 57.072 157.858C51.5549 158.424 45.4477 158.751 40.0673 158.278C37.3773 158.042 34.594 157.585 32.0409 156.715C29.5526 155.868 26.6561 154.416 24.4886 151.778C21.8857 148.609 21.4388 144.846 21.565 142.007C21.6939 139.107 22.4541 136.146 23.3902 133.437C25.2731 127.989 28.4272 122.002 31.5814 116.668C34.7805 111.258 38.1882 106.174 40.7772 102.464C41.1194 101.974 41.4481 101.507 41.761 101.064ZM85.488 147.748C85.7104 148.262 85.9543 148.818 86.2181 149.41C87.7 152.735 89.7794 157.121 92.2031 161.472C94.6626 165.888 97.3051 169.955 99.8579 172.833C101.957 175.199 103.215 175.879 103.608 176.07C103.96 175.892 105.059 175.274 106.9 173.155C109.336 170.354 111.855 166.313 114.2 161.864C116.507 157.488 118.472 153.055 119.868 149.686C120.142 149.026 120.392 148.41 120.618 147.846C120.391 147.519 120.149 147.172 119.895 146.809C118.048 144.172 115.533 140.674 112.827 137.18C110.092 133.647 107.295 130.29 104.875 127.844C104.231 127.193 103.659 126.653 103.162 126.217C102.761 126.557 102.303 126.969 101.789 127.462C99.3402 129.81 96.4628 133.164 93.616 136.77C90.8059 140.33 88.1824 143.933 86.2514 146.663C85.9825 147.043 85.7275 147.406 85.488 147.748ZM104.865 124.999C104.864 125.003 104.82 125.027 104.736 125.06C104.824 125.012 104.866 124.995 104.865 124.999ZM101.572 125C101.532 124.981 101.511 124.97 101.51 124.968C101.51 124.967 101.53 124.976 101.572 125ZM117.828 57.5147C117.614 56.6967 117.359 55.75 117.065 54.7035C116.019 50.9816 114.509 46.0895 112.625 41.2632C110.707 36.346 108.563 31.9229 106.37 28.8831C104.934 26.8932 103.995 26.19 103.602 25.9494C103.186 26.1931 102.136 26.9374 100.532 29.1551C98.2894 32.2539 96.1036 36.6868 94.1487 41.5637C92.2274 46.3572 90.6795 51.1954 89.6062 54.8691C89.3268 55.8257 89.0812 56.6973 88.8713 57.4615C88.9945 57.6283 89.1223 57.8007 89.2545 57.9784C90.7983 60.053 92.9076 62.7935 95.2078 65.5178C97.5413 68.2815 99.9139 70.8401 101.989 72.6607C102.624 73.2185 103.17 73.6512 103.621 73.9757C103.985 73.7083 104.42 73.361 104.924 72.9194C106.922 71.1687 109.23 68.6326 111.52 65.8385C113.773 63.0909 115.838 60.305 117.35 58.1882C117.517 57.9546 117.676 57.7298 117.828 57.5147ZM102.512 74.6637C102.513 74.6624 102.533 74.6528 102.573 74.6388C102.532 74.658 102.512 74.665 102.512 74.6637ZM104.694 74.6414C104.719 74.6505 104.732 74.6569 104.732 74.6569C104.732 74.6569 104.72 74.6529 104.694 74.6414ZM37.1467 143.09C37.1467 143.09 37.1438 143.077 37.1415 143.048C37.1461 143.075 37.1467 143.09 37.1467 143.09ZM168.629 142.852C168.629 142.852 168.63 142.84 168.635 142.82C168.632 142.842 168.629 142.852 168.629 142.852ZM170.161 64.7004C170.157 64.7022 170.109 64.6835 170.027 64.6389C170.124 64.6762 170.165 64.6986 170.161 64.7004ZM167.952 61.4726C167.946 61.3975 167.948 61.3558 167.951 61.3536C167.953 61.3514 167.956 61.389 167.952 61.4726ZM37.7374 61.767C37.7381 61.7482 37.7395 61.7395 37.7395 61.7395C37.7395 61.7395 37.7394 61.7492 37.7374 61.767Z" fill="url(#paint0_linear_1154_6221)"/>
<defs>
<linearGradient id="paint0_linear_1154_6221" x1="77.0167" y1="54.2554" x2="147.8" y2="152.479" gradientUnits="userSpaceOnUse">
<stop stop-color="white"/>
<stop offset="1" stop-color="#AAB9E2"/>
</linearGradient>
</defs>
</svg>
